# Blender v2.78 (sub 0) OBJ File: 'explosionBLEND.blend'
# www.blender.org
mtllib explosionBLEND.mtl
o smoke_musroom_big_Икосфера.002
v 0.054758 0.888823 0.168530
v -0.143361 0.888823 0.104157
v -0.143361 0.888823 -0.104157
v 0.054758 0.888823 -0.168530
v 0.177203 0.888822 0.000000
v 0.000000 0.998339 0.000000
v 0.188423 0.800220 0.061221
v 0.188423 0.800220 -0.061221
v 0.000000 0.800220 0.198120
v 0.116452 0.800220 0.160282
v -0.188423 0.800220 0.061221
v -0.116452 0.800220 0.160282
v -0.116452 0.800220 -0.160282
v -0.188423 0.800220 -0.061221
v 0.116452 0.800220 -0.160282
v 0.000000 0.800220 -0.198120
v 0.136344 0.904378 0.099059
v -0.052079 0.904379 0.160281
v -0.168530 0.904378 0.000000
v -0.052079 0.904379 -0.160281
v 0.136344 0.904378 -0.099059
v 0.032186 0.968751 0.099059
v 0.104157 0.968750 0.000000
v -0.084265 0.968751 0.061221
v -0.084265 0.968751 -0.061221
v 0.032186 0.968751 -0.099059
vn 0.4089 0.6617 0.6284
vn -0.4713 0.6617 0.5831
vn -0.7002 0.6617 -0.2680
vn 0.0385 0.6617 -0.7488
vn 0.7240 0.6617 -0.1947
vn 0.2680 0.9435 -0.1947
vn 0.4911 0.7947 -0.3568
vn 0.4089 0.6617 -0.6284
vn -0.1024 0.9435 -0.3151
vn -0.1876 0.7947 -0.5773
vn -0.4713 0.6617 -0.5831
vn -0.3313 0.9435 0.0000
vn -0.6071 0.7947 0.0000
vn -0.7002 0.6617 0.2680
vn -0.1024 0.9435 0.3151
vn -0.1876 0.7947 0.5773
vn 0.0385 0.6617 0.7488
vn 0.2680 0.9435 0.1947
vn 0.4911 0.7947 0.3568
vn 0.7240 0.6617 0.1947
vn 0.8897 0.3304 -0.3151
vn 0.7947 0.1876 -0.5773
vn 0.5746 0.3304 -0.7488
vn -0.0247 0.3304 -0.9435
vn -0.3035 0.1876 -0.9342
vn -0.5346 0.3304 -0.7779
vn -0.9050 0.3304 -0.2680
vn -0.9822 0.1876 0.0000
vn -0.9050 0.3304 0.2680
vn -0.5346 0.3304 0.7779
vn -0.3035 0.1876 0.9342
vn -0.0247 0.3304 0.9435
vn 0.5746 0.3304 0.7488
vn 0.7947 0.1876 0.5773
vn 0.8897 0.3304 0.3151
vn 0.3066 0.1256 -0.9435
vn -0.8026 0.1256 -0.5831
vn -0.8026 0.1256 0.5831
vn 0.3066 0.1256 0.9435
vn 0.9921 0.1256 0.0000
usemtl Материал.001
s off
f 1//1 17//1 22//1
f 2//2 18//2 24//2
f 3//3 19//3 25//3
f 4//4 20//4 26//4
f 5//5 21//5 23//5
f 23//6 26//6 6//6
f 23//7 21//7 26//7
f 21//8 4//8 26//8
f 26//9 25//9 6//9
f 26//10 20//10 25//10
f 20//11 3//11 25//11
f 25//12 24//12 6//12
f 25//13 19//13 24//13
f 19//14 2//14 24//14
f 24//15 22//15 6//15
f 24//16 18//16 22//16
f 18//17 1//17 22//17
f 22//18 23//18 6//18
f 22//19 17//19 23//19
f 17//20 5//20 23//20
f 8//21 21//21 5//21
f 8//22 15//22 21//22
f 15//23 4//23 21//23
f 16//24 20//24 4//24
f 16//25 13//25 20//25
f 13//26 3//26 20//26
f 14//27 19//27 3//27
f 14//28 11//28 19//28
f 11//29 2//29 19//29
f 12//30 18//30 2//30
f 12//31 9//31 18//31
f 9//32 1//32 18//32
f 10//33 17//33 1//33
f 10//34 7//34 17//34
f 7//35 5//35 17//35
f 15//36 16//36 4//36
f 13//37 14//37 3//37
f 11//38 12//38 2//38
f 9//39 10//39 1//39
f 7//40 8//40 5//40
o smoke_musroom_small_Икосфера
v 0.330366 1.166308 1.016778
v -0.864925 1.166308 0.628397
v -0.864925 1.166308 -0.628397
v 0.330366 1.166308 -1.016778
v 1.069104 1.166305 0.000000
v 0.000000 1.618807 0.000000
v 1.136796 0.800220 0.369362
v 1.136796 0.800220 -0.369362
v 0.000000 0.800220 1.195296
v 0.702578 0.800220 0.967015
v -1.136796 0.800220 0.369362
v -0.702578 0.800220 0.967015
v -0.702578 0.800220 -0.967015
v -1.136796 0.800220 -0.369362
v 0.702578 0.800220 -0.967015
v 0.000000 0.800220 -1.195296
v 0.822590 1.230581 0.597644
v -0.314206 1.230582 0.967009
v -1.016776 1.230580 0.000000
v -0.314206 1.230582 -0.967009
v 0.822590 1.230581 -0.597644
v 0.194183 1.496555 0.597642
v 0.628403 1.496552 0.000000
v -0.508387 1.496554 0.369360
v -0.508387 1.496554 -0.369360
v 0.194183 1.496555 -0.597642
vn 0.3344 0.7900 0.5138
vn -0.3854 0.7900 0.4768
vn -0.5725 0.7900 -0.2192
vn 0.0315 0.7900 -0.6123
vn 0.5920 0.7900 -0.1592
vn 0.1892 0.9723 -0.1374
vn 0.3750 0.8861 -0.2725
vn 0.3344 0.7900 -0.5138
vn -0.0723 0.9723 -0.2224
vn -0.1433 0.8861 -0.4409
vn -0.3854 0.7900 -0.4768
vn -0.2338 0.9723 0.0000
vn -0.4636 0.8861 0.0000
vn -0.5725 0.7900 0.2192
vn -0.0723 0.9723 0.2224
vn -0.1433 0.8861 0.4409
vn 0.0315 0.7900 0.6123
vn 0.1892 0.9723 0.1374
vn 0.3750 0.8861 0.2725
vn 0.5920 0.7900 0.1592
vn 0.8393 0.4551 -0.2973
vn 0.7793 0.2686 -0.5662
vn 0.5421 0.4551 -0.7064
vn -0.0233 0.4551 -0.8901
vn -0.2977 0.2686 -0.9161
vn -0.5043 0.4551 -0.7338
vn -0.8538 0.4551 -0.2529
vn -0.9632 0.2686 0.0000
vn -0.8538 0.4551 0.2529
vn -0.5043 0.4551 0.7338
vn -0.2977 0.2686 0.9161
vn -0.0233 0.4551 0.8901
vn 0.5421 0.4551 0.7064
vn 0.7793 0.2686 0.5662
vn 0.8393 0.4551 0.2973
vn 0.3039 0.1818 -0.9352
vn -0.7955 0.1818 -0.5780
vn -0.7955 0.1818 0.5780
vn 0.3039 0.1818 0.9352
vn 0.9833 0.1818 0.0000
usemtl Материал
s off
f 27//41 43//41 48//41
f 28//42 44//42 50//42
f 29//43 45//43 51//43
f 30//44 46//44 52//44
f 31//45 47//45 49//45
f 49//46 52//46 32//46
f 49//47 47//47 52//47
f 47//48 30//48 52//48
f 52//49 51//49 32//49
f 52//50 46//50 51//50
f 46//51 29//51 51//51
f 51//52 50//52 32//52
f 51//53 45//53 50//53
f 45//54 28//54 50//54
f 50//55 48//55 32//55
f 50//56 44//56 48//56
f 44//57 27//57 48//57
f 48//58 49//58 32//58
f 48//59 43//59 49//59
f 43//60 31//60 49//60
f 34//61 47//61 31//61
f 34//62 41//62 47//62
f 41//63 30//63 47//63
f 42//64 46//64 30//64
f 42//65 39//65 46//65
f 39//66 29//66 46//66
f 40//67 45//67 29//67
f 40//68 37//68 45//68
f 37//69 28//69 45//69
f 38//70 44//70 28//70
f 38//71 35//71 44//71
f 35//72 27//72 44//72
f 36//73 43//73 27//73
f 36//74 33//74 43//74
f 33//75 31//75 43//75
f 41//76 42//76 30//76
f 39//77 40//77 29//77
f 37//78 38//78 28//78
f 35//79 36//79 27//79
f 33//80 34//80 31//80
o Ico_Sphere_for_particle_system_Икосфера.003
v 0.000000 -0.108347 0.000000
v 0.078400 -0.048455 0.056961
v -0.029946 -0.048455 0.092165
v -0.096908 -0.048454 0.000000
v -0.029946 -0.048455 -0.092165
v 0.078400 -0.048455 -0.056961
v 0.029946 0.048455 0.092165
v -0.078400 0.048455 0.056961
v -0.078400 0.048455 -0.056961
v 0.029946 0.048455 -0.092165
v 0.096908 0.048454 0.000000
v 0.000000 0.108347 0.000000
v -0.017602 -0.092166 0.054173
v 0.046082 -0.092166 0.033480
v 0.028481 -0.056962 0.087654
v 0.092165 -0.056962 0.000000
v 0.046082 -0.092166 -0.033480
v -0.056961 -0.092165 0.000000
v -0.074563 -0.056962 0.054173
v -0.017602 -0.092166 -0.054173
v -0.074563 -0.056962 -0.054173
v 0.028481 -0.056962 -0.087654
v 0.103044 0.000000 0.033480
v 0.103044 0.000000 -0.033480
v 0.000000 0.000000 0.108347
v 0.063685 0.000000 0.087654
v -0.103044 0.000000 0.033480
v -0.063685 0.000000 0.087654
v -0.063685 0.000000 -0.087654
v -0.103044 0.000000 -0.033480
v 0.063685 0.000000 -0.087654
v 0.000000 0.000000 -0.108347
v 0.074563 0.056962 0.054173
v -0.028481 0.056962 0.087654
v -0.092165 0.056962 0.000000
v -0.028481 0.056962 -0.087654
v 0.074563 0.056962 -0.054173
v 0.017602 0.092166 0.054173
v 0.056961 0.092165 0.000000
v -0.046082 0.092166 0.033480
v -0.046082 0.092166 -0.033480
v 0.017602 0.092166 -0.054173
vn 0.1024 -0.9435 0.3151
vn 0.7002 -0.6617 0.2680
vn -0.2680 -0.9435 0.1947
vn -0.2680 -0.9435 -0.1947
vn 0.1024 -0.9435 -0.3151
vn 0.9050 -0.3304 0.2680
vn 0.0247 -0.3304 0.9435
vn -0.8897 -0.3304 0.3151
vn -0.5746 -0.3304 -0.7488
vn 0.5346 -0.3304 -0.7779
vn 0.8026 -0.1256 0.5831
vn -0.3066 -0.1256 0.9435
vn -0.9921 -0.1256 0.0000
vn -0.3066 -0.1256 -0.9435
vn 0.8026 -0.1256 -0.5831
vn 0.4089 0.6617 0.6284
vn -0.4713 0.6617 0.5831
vn -0.7002 0.6617 -0.2680
vn 0.0385 0.6617 -0.7488
vn 0.7240 0.6617 -0.1947
vn 0.2680 0.9435 -0.1947
vn 0.4911 0.7947 -0.3568
vn 0.4089 0.6617 -0.6284
vn -0.1024 0.9435 -0.3151
vn -0.1876 0.7947 -0.5773
vn -0.4713 0.6617 -0.5831
vn -0.3313 0.9435 0.0000
vn -0.6071 0.7947 0.0000
vn -0.7002 0.6617 0.2680
vn -0.1024 0.9435 0.3151
vn -0.1876 0.7947 0.5773
vn 0.0385 0.6617 0.7488
vn 0.2680 0.9435 0.1947
vn 0.4911 0.7947 0.3568
vn 0.7240 0.6617 0.1947
vn 0.8897 0.3304 -0.3151
vn 0.7947 0.1876 -0.5773
vn 0.5746 0.3304 -0.7488
vn -0.0247 0.3304 -0.9435
vn -0.3035 0.1876 -0.9342
vn -0.5346 0.3304 -0.7779
vn -0.9050 0.3304 -0.2680
vn -0.9822 0.1876 0.0000
vn -0.9050 0.3304 0.2680
vn -0.5346 0.3304 0.7779
vn -0.3035 0.1876 0.9342
vn -0.0247 0.3304 0.9435
vn 0.5746 0.3304 0.7488
vn 0.7947 0.1876 0.5773
vn 0.8897 0.3304 0.3151
vn 0.3066 0.1256 -0.9435
vn 0.3035 -0.1876 -0.9342
vn 0.0247 -0.3304 -0.9435
vn -0.8026 0.1256 -0.5831
vn -0.7947 -0.1876 -0.5773
vn -0.8897 -0.3304 -0.3151
vn -0.8026 0.1256 0.5831
vn -0.7947 -0.1876 0.5773
vn -0.5746 -0.3304 0.7488
vn 0.3066 0.1256 0.9435
vn 0.3035 -0.1876 0.9342
vn 0.5346 -0.3304 0.7779
vn 0.9921 0.1256 0.0000
vn 0.9822 -0.1876 0.0000
vn 0.9050 -0.3304 -0.2680
vn 0.4713 -0.6617 -0.5831
vn 0.1876 -0.7947 -0.5773
vn -0.0385 -0.6617 -0.7488
vn -0.4089 -0.6617 -0.6284
vn -0.4911 -0.7947 -0.3568
vn -0.7240 -0.6617 -0.1947
vn -0.7240 -0.6617 0.1947
vn -0.4911 -0.7947 0.3568
vn -0.4089 -0.6617 0.6284
vn 0.7002 -0.6617 -0.2680
vn 0.6071 -0.7947 0.0000
vn 0.3313 -0.9435 0.0000
vn -0.0385 -0.6617 0.7488
vn 0.1876 -0.7947 0.5773
vn 0.4713 -0.6617 0.5831
usemtl Материал.002
s off
f 53//81 66//81 65//81
f 54//82 66//82 68//82
f 53//83 65//83 70//83
f 53//84 70//84 72//84
f 53//85 72//85 69//85
f 54//86 68//86 75//86
f 55//87 67//87 77//87
f 56//88 71//88 79//88
f 57//89 73//89 81//89
f 58//90 74//90 83//90
f 54//91 75//91 78//91
f 55//92 77//92 80//92
f 56//93 79//93 82//93
f 57//94 81//94 84//94
f 58//95 83//95 76//95
f 59//96 85//96 90//96
f 60//97 86//97 92//97
f 61//98 87//98 93//98
f 62//99 88//99 94//99
f 63//100 89//100 91//100
f 91//101 94//101 64//101
f 91//102 89//102 94//102
f 89//103 62//103 94//103
f 94//104 93//104 64//104
f 94//105 88//105 93//105
f 88//106 61//106 93//106
f 93//107 92//107 64//107
f 93//108 87//108 92//108
f 87//109 60//109 92//109
f 92//110 90//110 64//110
f 92//111 86//111 90//111
f 86//112 59//112 90//112
f 90//113 91//113 64//113
f 90//114 85//114 91//114
f 85//115 63//115 91//115
f 76//116 89//116 63//116
f 76//117 83//117 89//117
f 83//118 62//118 89//118
f 84//119 88//119 62//119
f 84//120 81//120 88//120
f 81//121 61//121 88//121
f 82//122 87//122 61//122
f 82//123 79//123 87//123
f 79//124 60//124 87//124
f 80//125 86//125 60//125
f 80//126 77//126 86//126
f 77//127 59//127 86//127
f 78//128 85//128 59//128
f 78//129 75//129 85//129
f 75//130 63//130 85//130
f 83//131 84//131 62//131
f 83//132 74//132 84//132
f 74//133 57//133 84//133
f 81//134 82//134 61//134
f 81//135 73//135 82//135
f 73//136 56//136 82//136
f 79//137 80//137 60//137
f 79//138 71//138 80//138
f 71//139 55//139 80//139
f 77//140 78//140 59//140
f 77//141 67//141 78//141
f 67//142 54//142 78//142
f 75//143 76//143 63//143
f 75//144 68//144 76//144
f 68//145 58//145 76//145
f 69//146 74//146 58//146
f 69//147 72//147 74//147
f 72//148 57//148 74//148
f 72//149 73//149 57//149
f 72//150 70//150 73//150
f 70//151 56//151 73//151
f 70//152 71//152 56//152
f 70//153 65//153 71//153
f 65//154 55//154 71//154
f 68//155 69//155 58//155
f 68//156 66//156 69//156
f 66//157 53//157 69//157
f 65//158 67//158 55//158
f 65//159 66//159 67//159
f 66//160 54//160 67//160
